<?xml version="1.0" encoding="UTF-8" standalone="no"?><!DOCTYPE svg PUBLIC "-//W3C//DTD SVG 1.1//EN" "http://www.w3.org/Graphics/SVG/1.1/DTD/svg11.dtd"><svg width="100%" height="100%" viewBox="0 0 2363 794" version="1.1" xmlns="http://www.w3.org/2000/svg" xmlns:xlink="http://www.w3.org/1999/xlink" xml:space="preserve" xmlns:serif="http://www.serif.com/" style="fill-rule:evenodd;clip-rule:evenodd;stroke-linejoin:round;stroke-miterlimit:2;"><path d="M627.4,379.485c8.963,0.016 16.308,6.9 17.058,15.675c0.046,0.47 0.059,0.951 0.071,1.441c-0.016,9.471 -7.666,17.129 -17.129,17.129c-9.279,-0 -16.833,-7.399 -17.121,-16.611c0,-0.174 -0.012,-0.336 -0.012,-0.518c-0,-0.17 0.012,-0.336 0.012,-0.506c0,-0.315 0.021,-0.631 0.054,-0.935c0.755,-8.775 8.096,-15.659 17.067,-15.675m-453.545,-262.564c36.41,0.012 71.178,6.958 103.059,19.604c8.107,3.225 16.052,6.808 23.778,10.742c12.078,6.154 23.625,13.158 34.606,20.933c6.937,4.917 13.64,10.138 20.087,15.625c5.61,4.796 11.029,9.804 16.246,15.013c4.335,4.345 8.528,8.824 12.575,13.437c5.8,6.604 11.26,13.475 16.417,20.583c8.629,11.925 16.348,24.567 23.019,37.8c4.791,9.45 9.046,19.213 12.75,29.254c10.933,29.709 16.983,61.796 17.129,95.309l0.025,-0l-0,1.38c-0,26.426 5.892,51.467 16.429,73.877c7.446,15.85 17.217,30.376 28.863,43.166c6.208,6.791 12.92,13.101 20.095,18.853c10.605,8.471 22.225,15.728 34.655,21.568c7.629,3.586 15.583,6.626 23.779,9.099c15.837,4.744 32.646,7.31 50.033,7.31c12.054,-0 23.833,-1.235 35.196,-3.582c79.142,-16.275 138.658,-86.339 138.658,-170.291c0,-96.018 -77.829,-173.83 -173.854,-173.83c-17.387,-0 -34.196,2.537 -50.033,7.292c-5.184,-12.55 -10.942,-24.813 -17.229,-36.717c21.154,-7.008 43.745,-10.783 67.262,-10.783c59.146,0.012 112.575,23.929 151.346,62.695c0.354,0.355 0.717,0.725 1.075,1.088c-7.871,-18.863 -17.188,-36.996 -27.821,-54.3c-36.304,-22.163 -78.954,-34.933 -124.6,-34.933c-28.062,-0 -54.987,4.833 -80.021,13.683c-7.137,-11.792 -14.837,-23.229 -23.054,-34.271c31.892,-12.646 66.654,-19.592 103.075,-19.604c25.917,-0 51,3.525 74.813,10.121c-10.975,-11.65 -22.65,-22.688 -34.975,-32.979c-13.059,-1.709 -26.321,-2.584 -39.838,-2.584c-42.408,0 -82.804,8.646 -119.5,24.279c-9.104,-10.816 -18.737,-21.2 -28.837,-31.087c38.987,-18.583 82.05,-30.058 127.487,-32.767c-13.508,-7.683 -27.483,-14.616 -41.913,-20.771c-37.424,6.367 -72.958,18.363 -105.658,35.075c-11.071,-9.562 -22.621,-18.57 -34.608,-26.991c21.783,-12.413 44.825,-22.879 68.871,-31.175c-15.775,-3.575 -31.909,-6.254 -48.313,-7.984c-15.271,7.025 -30.055,14.93 -44.306,23.625c-14.28,-8.72 -29.133,-16.633 -44.433,-23.683c-16.444,1.713 -32.634,4.387 -48.451,7.933c24.143,8.321 47.266,18.821 69.134,31.284c8.095,4.604 16.011,9.479 23.75,14.596c12,7.958 23.548,16.512 34.606,25.645c6.884,5.684 13.575,11.571 20.071,17.68c3.1,2.916 6.138,5.87 9.154,8.887c6.804,6.8 13.371,13.833 19.684,21.104c5.687,6.534 11.145,13.25 16.42,20.138c8.217,10.746 15.905,21.908 23.042,33.446c4.475,7.225 8.721,14.6 12.758,22.116c6.317,11.779 12.071,23.904 17.23,36.334c3.258,7.833 6.27,15.8 9.045,23.875c4.417,12.862 8.217,26.029 11.363,39.429c2.062,8.825 3.837,17.741 5.333,26.766c3.534,21.471 5.409,43.513 5.484,65.988l0.037,-0c-0.017,0.462 -0.038,0.919 -0.038,1.38c0.005,16.785 9.713,31.291 23.805,38.232c5.67,2.777 12.037,4.347 18.783,4.347c14.629,0 27.537,-7.391 35.196,-18.63c4.658,-6.82 7.371,-15.061 7.371,-23.949c-0,-23.518 -19.063,-42.555 -42.567,-42.568c-6.746,0 -13.104,1.575 -18.783,4.359c-1.2,-13.842 -3.038,-27.496 -5.505,-40.929c7.667,-2.342 15.821,-3.617 24.288,-3.617c22.883,-0 43.496,9.233 58.525,24.237c15,15.017 24.225,35.617 24.233,58.518c-0.008,22.892 -9.241,43.51 -24.233,58.522c-6.742,6.742 -14.617,12.328 -23.329,16.4c-10.663,5.043 -22.584,7.852 -35.196,7.856c-8.467,-0.004 -16.621,-1.275 -24.288,-3.623c-8.62,-2.643 -16.616,-6.638 -23.783,-11.77c-3.721,-2.659 -7.221,-5.626 -10.458,-8.863c-14.996,-15.012 -24.238,-35.63 -24.238,-58.522l0,-1.441c-0.075,-20.935 -1.9,-41.46 -5.312,-61.439c-2.75,-16.154 -6.567,-31.933 -11.333,-47.296c-2.701,-8.712 -5.734,-17.287 -9.055,-25.704c-5.05,-12.829 -10.812,-25.325 -17.204,-37.404c-4,-7.554 -8.25,-14.946 -12.754,-22.175c-7.079,-11.404 -14.767,-22.409 -23.029,-32.942c-5.25,-6.704 -10.734,-13.225 -16.409,-19.55c-9.087,-10.083 -18.716,-19.671 -28.837,-28.708c-6.49,-5.792 -13.189,-11.367 -20.078,-16.696c-11.041,-8.563 -22.612,-16.496 -34.601,-23.788c-7.738,-4.716 -15.663,-9.112 -23.746,-13.25c-32.853,-16.787 -68.53,-28.808 -106.143,-35.166c-14.486,6.175 -28.514,13.129 -42.048,20.825c45.666,2.633 88.901,14.125 128.12,32.804c8.087,3.85 16.008,8.012 23.738,12.467c12.005,6.916 23.56,14.541 34.601,22.808c6.901,5.15 13.592,10.575 20.079,16.212c5.987,5.225 11.791,10.655 17.415,16.275c3.905,3.888 7.7,7.88 11.413,11.955c5.704,6.279 11.171,12.758 16.412,19.437c8.309,10.608 15.992,21.696 23.017,33.238c4.542,7.404 8.788,15.033 12.746,22.791c6.546,12.784 12.304,26.046 17.217,39.713c3.42,9.5 6.445,19.183 9.033,29.054c7.262,27.654 11.183,56.675 11.312,86.6l0.013,-0c-0.008,0.462 -0.013,0.919 -0.013,1.38c0.005,23.451 7.446,45.161 20.134,62.893c9.129,12.765 20.962,23.459 34.671,31.254c7.425,4.221 15.395,7.572 23.783,9.973c9.421,2.667 19.333,4.108 29.625,4.108c12.321,-0 24.167,-2.064 35.196,-5.861c42.491,-14.611 73,-54.923 73.016,-102.367c-0.016,-59.755 -48.433,-108.201 -108.212,-108.205c-10.292,-0 -20.204,1.425 -29.625,4.108c-3.2,-13.1 -7.008,-25.975 -11.354,-38.571c13.008,-3.716 26.741,-5.725 40.979,-5.725c41.017,0.013 78.037,16.588 104.937,43.459c26.871,26.891 43.459,63.916 43.459,104.934c-0,41.021 -16.588,78.034 -43.459,104.949c-18.945,18.922 -42.895,32.748 -69.741,39.268c-11.271,2.732 -23.063,4.197 -35.196,4.197c-14.238,0 -27.979,-1.999 -40.979,-5.731c-8.25,-2.355 -16.204,-5.407 -23.788,-9.102c-12.654,-6.157 -24.308,-14.049 -34.646,-23.394c-1.887,-1.7 -3.725,-3.449 -5.529,-5.238c-5.271,-5.282 -10.15,-10.952 -14.583,-16.962c-18.158,-24.617 -28.883,-55.017 -28.883,-87.987l-0,-1.441l-0.017,0c-0.104,-24.981 -3.225,-49.231 -9,-72.439c-4.296,-17.292 -10.071,-33.992 -17.175,-49.975c-3.858,-8.679 -8.125,-17.15 -12.729,-25.367c-6.879,-12.258 -14.584,-23.967 -23.029,-35.104c-5.196,-6.837 -10.672,-13.45 -16.42,-19.833c-8.977,-9.959 -18.605,-19.325 -28.821,-28.055c-6.456,-5.508 -13.154,-10.766 -20.079,-15.737c-11.017,-7.917 -22.568,-15.113 -34.622,-21.521c-7.718,-4.116 -15.643,-7.925 -23.754,-11.371c-36.706,-15.633 -77.074,-24.279 -119.491,-24.279c-12.159,0 -24.155,0.704 -35.958,2.092c-1.566,0.179 -3.145,0.383 -4.702,0.579c-12.357,10.379 -24.083,21.442 -35.095,33.154c12.902,-3.629 26.202,-6.346 39.797,-8.1c11.783,-1.5 23.771,-2.283 35.958,-2.283" style="fill:#00bed7;fill-rule:nonzero;"/><path d="M662.596,607.776c-11.446,1.89 -23.196,2.869 -35.196,2.869c-23.517,0 -46.108,-3.784 -67.258,-10.774c-8.159,-2.696 -16.1,-5.856 -23.784,-9.483c-12.237,-5.755 -23.812,-12.62 -34.625,-20.492c-7.033,-5.104 -13.754,-10.641 -20.108,-16.529c-1.892,-1.777 -3.754,-3.575 -5.596,-5.412c-8.491,-8.488 -16.262,-17.695 -23.225,-27.494c-6.116,-8.601 -11.616,-17.679 -16.412,-27.158c-14.746,-29.032 -23.047,-61.881 -23.047,-96.705l0,-1.436c-0.166,-26.516 -4.622,-51.987 -12.725,-75.775c-5.845,-17.212 -13.62,-33.537 -23.026,-48.729c-5.014,-8.091 -10.495,-15.854 -16.412,-23.279c-8.714,-10.929 -18.367,-21.071 -28.834,-30.317c-6.39,-5.662 -13.101,-10.97 -20.075,-15.925c-10.908,-7.737 -22.471,-14.575 -34.63,-20.429c-7.718,-3.712 -15.639,-7.021 -23.778,-9.912c-25.013,-8.85 -51.952,-13.688 -80.009,-13.688c-12.223,0 -24.224,0.913 -35.961,2.675c-32.529,4.904 -62.885,16.342 -89.747,32.921c-10.678,17.475 -20.047,35.8 -27.928,54.854c0.761,-0.775 1.514,-1.537 2.275,-2.3c30.744,-30.737 70.692,-52.141 115.4,-59.691c11.693,-1.963 23.705,-3.009 35.961,-3.009c23.515,0 46.108,3.784 67.247,10.784c8.156,2.691 16.093,5.862 23.787,9.483c12.211,5.762 23.803,12.617 34.634,20.5c7.026,5.096 13.729,10.633 20.087,16.529c1.89,1.763 3.76,3.575 5.606,5.404c8.479,8.492 16.25,17.688 23.24,27.488c6.103,8.612 11.6,17.696 16.412,27.179c14.534,28.646 22.799,60.992 23.026,95.293l0.004,0l-0,1.38c-0,27.021 4.468,52.997 12.721,77.225c5.86,17.201 13.619,33.537 23.022,48.734c5.029,8.079 10.504,15.87 16.433,23.273c8.713,10.932 18.354,21.075 28.804,30.327c6.425,5.65 13.117,10.961 20.096,15.923c10.908,7.726 22.483,14.575 34.642,20.419c7.691,3.72 15.629,7.031 23.762,9.924c25.034,8.864 51.946,13.677 80.021,13.677c11.95,-0 23.717,-0.879 35.196,-2.558c32.229,-4.76 62.371,-15.923 89.108,-32.194c10.646,-17.266 20,-35.414 27.904,-54.259c-0.287,0.287 -0.566,0.579 -0.862,0.866c-30.917,30.898 -71.142,52.39 -116.15,59.821" style="fill:#00bed7;fill-rule:nonzero;"/><path d="M173.856,413.73c-9.451,-0 -17.112,-7.658 -17.116,-17.129c-0,-0.461 0.004,-0.918 0.053,-1.38c0.716,-8.803 8.074,-15.72 17.063,-15.736c9.002,0.016 16.348,6.933 17.068,15.736c0.029,0.462 0.061,0.919 0.061,1.38c-0.032,9.471 -7.678,17.129 -17.129,17.129m453.544,262.559c-36.417,0 -71.183,-6.945 -103.075,-19.589c-8.117,-3.226 -16.046,-6.804 -23.767,-10.746c-12.066,-6.161 -23.629,-13.166 -34.612,-20.937c-6.925,-4.91 -13.638,-10.135 -20.088,-15.64c-5.595,-4.788 -11.025,-9.79 -16.241,-14.995c-4.334,-4.343 -8.542,-8.828 -12.571,-13.442c-5.793,-6.609 -11.265,-13.482 -16.426,-20.593c-8.629,-11.936 -16.331,-24.576 -23.025,-37.787c-4.78,-9.475 -9.026,-19.233 -12.725,-29.275c-11.098,-30.108 -17.157,-62.682 -17.157,-96.684l-0,-1.441l-0.013,0c-0.21,-25.889 -6.083,-50.431 -16.432,-72.439c-7.447,-15.842 -17.21,-30.367 -28.862,-43.154c-6.188,-6.809 -12.915,-13.092 -20.099,-18.846c-10.589,-8.467 -22.213,-15.733 -34.642,-21.559c-7.634,-3.587 -15.579,-6.637 -23.779,-9.1c-15.845,-4.754 -32.634,-7.291 -50.03,-7.291c-12.332,-0 -24.349,1.262 -35.961,3.704c-78.758,16.571 -137.883,86.429 -137.895,170.126c0.012,96.017 77.82,173.869 173.856,173.869c17.396,-0 34.185,-2.563 50.03,-7.306c5.201,12.543 10.937,24.778 17.218,36.706c-21.127,6.994 -43.732,10.774 -67.248,10.774c-59.156,0 -112.586,-23.936 -151.361,-62.69c-0.675,-0.684 -1.363,-1.376 -2.04,-2.077c7.909,19.06 17.267,37.354 27.997,54.806c36.471,22.472 79.426,35.415 125.404,35.415c28.065,0 54.984,-4.812 80.009,-13.672c7.152,11.802 14.85,23.24 23.05,34.265c-31.881,12.641 -66.648,19.598 -103.059,19.598c-26.118,0 -51.402,-3.582 -75.354,-10.256c11.025,11.697 22.742,22.73 35.139,33.092c13.146,1.732 26.579,2.63 40.215,2.63c42.413,0 82.782,-8.661 119.496,-24.296c9.111,10.822 18.731,21.204 28.85,31.1c-39.054,18.598 -82.146,30.076 -127.635,32.764c13.551,7.674 27.599,14.611 42.073,20.759c37.426,-6.375 72.926,-18.375 105.629,-35.071c11.061,9.564 22.613,18.578 34.601,26.984c-21.71,12.381 -44.643,22.811 -68.595,31.093c15.829,3.541 32.015,6.184 48.475,7.872c15.097,-6.97 29.688,-14.773 43.814,-23.354c-5.278,-3.246 -10.459,-6.581 -15.583,-10.038c5.161,3.429 10.353,6.76 15.639,9.985c14.077,8.581 28.688,16.392 43.759,23.362c16.4,-1.724 32.546,-4.379 48.329,-7.917c-23.858,-8.265 -46.72,-18.678 -68.337,-30.991c-8.096,-4.602 -16.012,-9.483 -23.751,-14.615c-11.988,-7.945 -23.54,-16.501 -34.597,-25.636c-6.889,-5.663 -13.579,-11.572 -20.079,-17.687c-3.092,-2.902 -6.14,-5.861 -9.147,-8.856c-6.812,-6.82 -13.377,-13.842 -19.695,-21.119c-5.675,-6.545 -11.151,-13.26 -16.408,-20.14c-8.216,-10.746 -15.911,-21.913 -23.05,-33.456c-4.484,-7.221 -8.73,-14.599 -12.754,-22.115c-6.31,-11.77 -12.053,-23.888 -17.225,-36.318c-3.254,-7.852 -6.27,-15.8 -9.042,-23.883c-4.424,-12.875 -8.221,-26.025 -11.373,-39.434c-2.056,-8.815 -3.829,-17.744 -5.31,-26.762c-3.631,-21.928 -5.501,-44.436 -5.501,-67.385l0,-1.441l-0.028,0c-0.559,-16.157 -10.094,-30.022 -23.775,-36.768c-5.658,-2.784 -12.053,-4.359 -18.78,-4.359c-15.121,0 -28.4,7.896 -35.961,19.771c-4.181,6.579 -6.601,14.399 -6.622,22.797c0.021,23.516 19.06,42.579 42.583,42.579c6.727,0 13.122,-1.582 18.78,-4.359c1.198,13.842 3.044,27.498 5.513,40.935c-7.678,2.348 -15.822,3.619 -24.293,3.623c-22.9,-0.012 -43.505,-9.253 -58.537,-24.256c-14.988,-15.012 -24.216,-35.63 -24.228,-58.522c0.012,-22.901 9.24,-43.497 24.228,-58.513c6.565,-6.55 14.182,-11.988 22.576,-16.055c10.871,-5.25 23.05,-8.187 35.961,-8.187c8.472,-0 16.615,1.275 24.285,3.617c8.617,2.637 16.614,6.637 23.799,11.77c3.703,2.663 7.208,5.617 10.434,8.855c14.7,14.7 23.871,34.787 24.236,57.133l0.004,-0l-0,1.38c-0,21.431 1.817,42.454 5.322,62.893c2.752,16.141 6.557,31.934 11.324,47.294c2.72,8.71 5.74,17.274 9.059,25.709c5.047,12.826 10.794,25.316 17.205,37.394c3.991,7.552 8.253,14.943 12.749,22.184c7.075,11.409 14.777,22.394 23.026,32.942c5.262,6.702 10.742,13.226 16.433,19.548c9.078,10.07 18.69,19.675 28.809,28.705c6.504,5.812 13.191,11.365 20.079,16.703c11.054,8.552 22.613,16.502 34.605,23.783c7.733,4.699 15.658,9.127 23.758,13.255c32.546,16.631 67.9,28.595 105.138,35.006c14.421,-6.136 28.437,-13.085 41.933,-20.731c-45.25,-2.756 -88.125,-14.222 -126.996,-32.727c-8.091,-3.865 -16.029,-8.034 -23.758,-12.49c-12.008,-6.917 -23.554,-14.539 -34.6,-22.799c-6.893,-5.153 -13.592,-10.568 -20.08,-16.23c-5.982,-5.21 -11.798,-10.637 -17.404,-16.251c-3.889,-3.889 -7.71,-7.888 -11.417,-11.96c-5.699,-6.281 -11.171,-12.765 -16.412,-19.452c-8.302,-10.596 -15.992,-21.69 -23.038,-33.237c-4.522,-7.407 -8.771,-15.012 -12.738,-22.775c-6.532,-12.797 -12.275,-26.053 -17.205,-39.713c-3.412,-9.507 -6.448,-19.193 -9.034,-29.072c-7.358,-28.069 -11.296,-57.571 -11.296,-87.979l-0,-1.441c-0.32,-22.906 -7.739,-44.081 -20.14,-61.447c-9.139,-12.75 -20.978,-23.45 -34.686,-31.246c-7.419,-4.2 -15.389,-7.592 -23.763,-9.963c-9.426,-2.671 -19.362,-4.108 -29.631,-4.108c-12.607,-0 -24.709,2.15 -35.961,6.117c-42.077,14.82 -72.242,54.933 -72.25,102.088c0.008,59.768 48.435,108.216 108.211,108.228c10.269,-0 20.205,-1.441 29.631,-4.108c3.202,13.097 6.998,25.948 11.361,38.563c-13.016,3.732 -26.761,5.736 -40.992,5.736c-41.036,-0 -78.038,-16.595 -104.941,-43.47c-26.875,-26.895 -43.461,-63.928 -43.461,-104.949c0,-41.018 16.586,-78.043 43.461,-104.934c18.768,-18.746 42.457,-32.484 68.98,-39.075c11.507,-2.871 23.552,-4.384 35.961,-4.384c14.231,0 27.976,2.009 40.984,5.73c8.241,2.358 16.19,5.42 23.783,9.112c12.644,6.138 24.304,14.033 34.637,23.375c1.891,1.692 3.732,3.446 5.545,5.242c5.266,5.287 10.135,10.958 14.567,16.958c17.902,24.271 28.579,54.158 28.883,86.596l-0,1.38c-0,25.483 3.128,50.229 9.013,73.877c4.31,17.315 10.078,33.995 17.189,49.982c3.849,8.682 8.099,17.149 12.725,25.373c6.885,12.24 14.587,23.989 23.026,35.107c5.205,6.836 10.669,13.458 16.412,19.828c8.981,9.969 18.613,19.355 28.826,28.061c6.446,5.513 13.162,10.766 20.087,15.736c11,7.913 22.559,15.113 34.6,21.529c7.738,4.12 15.659,7.904 23.763,11.365c36.704,15.635 77.096,24.296 119.504,24.296c11.904,0 23.642,-0.684 35.196,-2.02c1.4,-0.153 2.812,-0.331 4.196,-0.513c12.325,-10.289 24.029,-21.306 35.025,-32.934c-12.713,3.505 -25.83,6.136 -39.221,7.815c-11.525,1.445 -23.279,2.186 -35.196,2.186" style="fill:#00bed7;fill-rule:nonzero;"/><path d="M908.679,473.264l184.438,-0l-0,-34.907l-147.2,0l-0,-88.211l130.496,-0l-0,-34.909l-130.496,0l-0,-82l140.208,0l0,-34.904l-177.446,0l0,274.931Z" style="fill:#515153;fill-rule:nonzero;"/><path d="M1317.12,314.029c-18.254,-19.779 -43.887,-29.087 -70.683,-29.087c-57.484,-0 -96.275,40.35 -96.275,97.074c-0,56.727 39.566,95.908 96.275,95.908c26.796,0 51.654,-8.144 69.908,-28.31l-24.858,-24.859c-11.65,13.599 -25.246,20.593 -44.663,20.593c-36.121,-0 -59.425,-27.975 -59.425,-62.555c0,-34.581 19.421,-65.272 57.484,-65.272c19.416,-0 33.012,6.991 45.829,20.591l26.408,-24.083Z" style="fill:#515153;fill-rule:nonzero;"/><path d="M1385.15,473.264l34.904,-0l0,-94.768c0,-42.721 22.15,-61.367 51.296,-61.367c22.15,0 41.966,12.817 41.966,47.384l0.001,108.751l34.908,-0l-0,-118.46c-0,-48.921 -31.029,-70.25 -66.775,-70.25c-28.367,0 -51.679,13.575 -60.617,32.967l-0.779,-0l0,-137.833l-34.904,-0l-0,293.576Z" style="fill:#515153;fill-rule:nonzero;"/><path d="M1654.59,381.239c-0,-37.301 23.312,-64.11 60.612,-64.11c37.3,0 60.613,26.809 60.613,64.11c-0,37.3 -23.313,64.109 -60.613,64.109c-37.3,-0 -60.612,-26.809 -60.612,-64.109Zm-37.238,0c0,53.618 43.063,96.685 97.85,96.685c54.784,0 97.85,-43.067 97.85,-96.685c0,-53.618 -43.066,-96.685 -97.85,-96.685c-54.787,0 -97.85,43.067 -97.85,96.685Z" style="fill:#515153;fill-rule:nonzero;"/><path d="M2013.5,314.804c-13.187,-21.716 -38.417,-30.25 -62.904,-30.25c-34.587,0 -69.883,18.229 -69.883,56.667c-0,35.354 26.375,45.069 56.279,52.452c15.162,3.496 44.312,7.382 44.312,28.363c0,15.93 -19.433,23.312 -37.312,23.312c-20.213,-0 -33.413,-10.49 -44.663,-21.758l-26.387,21.758c18.241,24.82 40.741,32.576 71.05,32.576c36.533,0 74.55,-16.288 74.55,-57.831c-0,-34.58 -23.275,-46.235 -53.563,-53.618c-15.545,-3.496 -47.029,-6.604 -47.029,-28.754c0,-13.208 14.379,-20.592 30.704,-20.592c17.492,0 29.542,8.163 37.692,18.263l27.154,-20.588Z" style="fill:#515153;fill-rule:nonzero;"/><path d="M971.721,509.264c-42.304,0 -69.717,32.442 -69.717,72.244c0,39.803 27.413,72.245 69.717,72.245c24.925,-0 42.308,-11.493 53.617,-26.367c0.837,-1.257 1.675,-2.514 1.675,-4.19c-0,-3.352 -2.513,-5.656 -5.863,-5.656c-1.883,0 -3.142,0.628 -4.4,2.304c-10.471,13.198 -23.037,22.416 -45.029,22.416c-36.233,-0 -57.175,-28.91 -57.175,-60.752c-0,-31.842 20.942,-60.751 57.175,-60.751c21.992,0 34.558,9.218 45.029,22.415c1.258,1.676 2.517,2.305 4.4,2.305c3.35,-0 5.863,-2.305 5.863,-5.657c-0,-1.675 -0.838,-2.932 -1.675,-4.189c-11.309,-14.874 -28.692,-26.367 -53.617,-26.367Z" style="fill:#515153;fill-rule:nonzero;"/><path d="M1142.84,605.804c0,-26.609 -19.666,-47.949 -47.741,-47.949c-28.075,-0 -47.738,21.34 -47.738,47.949c0,26.608 19.663,47.949 47.738,47.949c28.075,-0 47.741,-21.341 47.741,-47.949Zm-12.541,-0c-0,21.37 -15.504,37.084 -35.2,37.084c-19.696,-0 -35.2,-15.714 -35.2,-37.084c-0,-21.371 15.504,-37.085 35.2,-37.085c19.696,0 35.2,15.714 35.2,37.085Z" style="fill:#515153;fill-rule:nonzero;"/><path d="M1327.15,599.926c-0,-24.295 -14.429,-42.071 -38.733,-42.071c-16.134,-0 -28.496,5.85 -37.288,21.127c-5.642,-12.142 -17.996,-21.127 -34.763,-21.127c-15.295,-0 -26.608,6.478 -33.312,17.985l-0,-10.881c-0,-3.545 -2.717,-6.267 -6.271,-6.267c-3.554,0 -6.271,2.722 -6.271,6.281l0,81.66c0,3.56 2.717,6.282 6.271,6.282c3.554,-0 6.271,-2.722 6.271,-6.282l-0,-43.761c-0,-20.539 12.779,-33.524 30.592,-33.524c19.487,-0 28.912,11.938 28.912,30.787l0,46.497c0,3.56 2.721,6.283 6.271,6.283c3.554,-0 6.271,-2.723 6.271,-6.283l-0,-43.774c-0,-20.525 12.783,-33.51 30.591,-33.51c19.488,-0 28.917,11.938 28.917,30.787l0,46.497c0,3.56 2.717,6.283 6.271,6.283c3.554,-0 6.271,-2.723 6.271,-6.283l-0,-46.706Z" style="fill:#515153;fill-rule:nonzero;"/><path d="M1516.27,599.926c-0,-24.295 -14.425,-42.071 -38.733,-42.071c-16.134,-0 -28.496,5.85 -37.288,21.127c-5.642,-12.142 -17.996,-21.127 -34.758,-21.127c-15.296,-0 -26.613,6.478 -33.317,17.985l0,-10.881c0,-3.545 -2.717,-6.267 -6.271,-6.267c-3.554,0 -6.271,2.722 -6.271,6.281l0,81.66c0,3.56 2.717,6.282 6.271,6.282c3.554,-0 6.271,-2.722 6.271,-6.282l0,-43.761c0,-20.539 12.779,-33.524 30.592,-33.524c19.487,-0 28.916,11.938 28.916,30.787l0,46.497c0,3.56 2.717,6.283 6.267,6.283c3.554,-0 6.271,-2.723 6.271,-6.283l-0,-43.774c-0,-20.525 12.783,-33.51 30.591,-33.51c19.488,-0 28.917,11.938 28.917,30.787l0,46.497c0,3.56 2.717,6.283 6.271,6.283c3.554,-0 6.271,-2.723 6.271,-6.283l-0,-46.706Z" style="fill:#515153;fill-rule:nonzero;"/><path d="M1547.71,611.681c0,24.295 14.846,42.072 39.151,42.072c15.295,-0 27.449,-6.478 34.154,-17.986l-0,10.88c-0,3.546 2.716,6.268 6.271,6.268c3.554,-0 6.27,-2.722 6.27,-6.282l0,-81.66c0,-3.559 -2.716,-6.281 -6.27,-6.281c-3.555,0 -6.271,2.722 -6.271,6.281l-0,43.762c-0,20.539 -13.621,33.525 -31.429,33.525c-19.488,-0 -29.334,-11.939 -29.334,-30.788l0,-46.497c0,-3.56 -2.716,-6.283 -6.271,-6.283c-3.554,0 -6.271,2.723 -6.271,6.283l0,46.706Z" style="fill:#515153;fill-rule:nonzero;"/><path d="M1752.94,599.926c-0.001,-24.295 -14.842,-42.071 -39.15,-42.071c-15.296,-0 -27.446,6.478 -34.155,17.985l0,-10.881c0,-3.545 -2.716,-6.267 -6.27,-6.267c-3.551,0 -6.267,2.722 -6.267,6.281l-0,81.66c-0,3.56 2.716,6.282 6.267,6.282c3.554,-0 6.27,-2.722 6.27,-6.282l0,-43.761c0,-20.539 13.621,-33.524 31.43,-33.524c19.487,-0 29.337,11.938 29.337,30.787l0,46.497c0,3.56 2.717,6.283 6.271,6.283c3.55,-0 6.266,-2.723 6.266,-6.283l0,-46.706Z" style="fill:#515153;fill-rule:nonzero;"/><path d="M1797.97,646.633l-0,-81.66c-0,-3.559 -2.721,-6.281 -6.271,-6.281c-3.554,0 -6.271,2.722 -6.271,6.281l0,81.66c0,3.56 2.717,6.282 6.271,6.282c3.55,-0 6.271,-2.722 6.271,-6.282Zm-14.217,-113.912c0,4.399 3.554,7.959 7.946,7.959c4.388,0 7.946,-3.56 7.946,-7.959c-0,-4.398 -3.558,-7.958 -7.946,-7.958c-4.392,-0 -7.946,3.56 -7.946,7.958Z" style="fill:#515153;fill-rule:nonzero;"/><path d="M1873.79,557.855c-27.438,-0 -47.938,20.502 -47.938,47.949c0,27.446 20.5,47.949 47.938,47.949c17.174,-0 30.579,-8.149 36.862,-17.57c0.838,-1.257 1.254,-2.304 1.254,-3.771c0,-3.143 -2.721,-5.238 -6.071,-5.238c-2.095,0 -3.354,1.257 -4.4,2.514c-7.541,9.01 -15.287,13.2 -27.645,13.2c-20.525,-0 -35.396,-16.552 -35.396,-37.084c-0,-20.533 14.87,-37.085 35.396,-37.085c12.358,0 20.104,4.191 27.645,13.2c1.046,1.257 2.305,2.514 4.4,2.514c3.35,-0 6.071,-2.095 6.071,-5.238c0,-1.467 -0.416,-2.514 -1.254,-3.771c-6.283,-9.421 -19.688,-17.569 -36.862,-17.569Z" style="fill:#515153;fill-rule:nonzero;"/><path d="M2013.9,646.652l0,-49.424c0,-25.364 -15.475,-39.373 -41.875,-39.373c-14.042,-0 -23.887,2.715 -32.046,6.894c-1.67,0.836 -3.133,2.507 -3.133,4.599c0,3.354 2.088,5.241 5.433,5.241c1.255,0 2.296,-0.419 2.925,-0.629c8.171,-3.354 15.713,-5.45 25.771,-5.45c20.538,-0 30.384,9.014 30.384,28.928l-0,12.333c-4.821,-5.646 -15.717,-11.285 -29.334,-11.285c-23.262,0 -38.525,11.075 -38.525,27.843c0,15.719 14.217,27.424 36.638,27.424c12.783,-0 24.096,-3.76 31.221,-11.705l-0,4.604c-0,3.331 2.3,6.263 6.27,6.263c3.971,-0 6.271,-2.932 6.271,-6.283l0,0.02Zm-12.541,-20.336c-0,11.121 -14.038,18.247 -29.334,18.247c-15.508,0 -25.983,-6.916 -25.983,-18.234c-0,-11.109 10.475,-18.444 26.821,-18.444c14.246,0 28.496,6.916 28.496,18.444l-0,-0.013Z" style="fill:#515153;fill-rule:nonzero;"/><path d="M2068.78,560.368l0,-29.322c0,-3.561 -2.721,-6.284 -6.271,-6.284c-3.554,0 -6.27,2.723 -6.27,6.284l-0,29.322l-18.642,-0c-2.933,-0 -5.233,2.298 -5.233,5.223c-0,2.924 2.3,5.223 5.233,5.223l18.642,-0l-0,75.818c-0,3.56 2.716,6.283 6.27,6.283c3.55,-0 6.271,-2.723 6.271,-6.283l0,-75.818l21.15,-0c2.725,-0 5.238,-2.299 5.238,-5.223c-0,-2.925 -2.513,-5.223 -5.238,-5.223l-21.15,-0Z" style="fill:#515153;fill-rule:nonzero;"/><path d="M2125.54,646.633l-0,-81.66c-0,-3.559 -2.721,-6.281 -6.271,-6.281c-3.554,0 -6.271,2.722 -6.271,6.281l-0,81.66c-0,3.56 2.717,6.282 6.271,6.282c3.55,-0 6.271,-2.722 6.271,-6.282Zm-14.217,-113.912c-0,4.399 3.554,7.959 7.946,7.959c4.387,0 7.946,-3.56 7.946,-7.959c-0,-4.398 -3.559,-7.958 -7.946,-7.958c-4.392,-0 -7.946,3.56 -7.946,7.958Z" style="fill:#515153;fill-rule:nonzero;"/><path d="M2248.69,605.804c-0,-26.609 -19.663,-47.949 -47.742,-47.949c-28.075,-0 -47.738,21.34 -47.738,47.949c0,26.608 19.663,47.949 47.738,47.949c28.079,-0 47.742,-21.341 47.742,-47.949Zm-12.542,-0c-0,21.37 -15.504,37.084 -35.2,37.084c-19.692,-0 -35.196,-15.714 -35.196,-37.084c0,-21.371 15.504,-37.085 35.196,-37.085c19.696,0 35.2,15.714 35.2,37.085Z" style="fill:#515153;fill-rule:nonzero;"/><path d="M2362.2,599.926c0,-24.295 -14.846,-42.071 -39.15,-42.071c-15.296,-0 -27.45,6.478 -34.154,17.985l-0,-10.881c-0,-3.545 -2.717,-6.267 -6.271,-6.267c-3.554,0 -6.271,2.722 -6.271,6.281l0,81.66c0,3.56 2.717,6.282 6.271,6.282c3.554,-0 6.271,-2.722 6.271,-6.282l-0,-43.761c-0,-20.539 13.621,-33.524 31.429,-33.524c19.488,-0 29.333,11.938 29.333,30.787l0,46.497c0,3.56 2.721,6.283 6.271,6.283c3.554,-0 6.271,-2.723 6.271,-6.283l0,-46.706Z" style="fill:#515153;fill-rule:nonzero;"/><path d="M2149.02,437.745c-0,-20.77 -14.95,-38.51 -37.284,-38.51c-22.333,0 -37.504,17.74 -37.504,38.51c0,20.77 15.171,38.509 37.505,38.509c22.333,0 37.283,-17.739 37.283,-38.509Zm-6.688,-0c0,17.085 -11.387,32.606 -30.595,32.606c-19.209,0 -30.821,-15.521 -30.821,-32.606c-0,-17.085 11.612,-32.607 30.82,-32.607c19.209,-0 30.596,15.522 30.596,32.607Z" style="fill:#00bed7;fill-rule:nonzero;"/><path d="M2217.12,472.682l-0,-69.764c-0,-1.785 -1.225,-3.237 -3.121,-3.237c-1.892,0 -3.229,1.34 -3.229,3.237l-0,60.723l-47.238,-62.508c-0.558,-0.782 -1.446,-1.452 -2.562,-1.452c-2.004,0 -3.342,1.34 -3.342,3.237l0,69.764c0,1.675 1.338,3.125 3.229,3.125c1.784,0 3.121,-1.45 3.121,-3.125l0,-60.722l47.35,62.397c0.667,0.893 1.338,1.45 2.563,1.45c2.116,0 3.229,-1.45 3.229,-3.125Z" style="fill:#00bed7;fill-rule:nonzero;"/><path d="M2294.6,461.191l0,-19.316c0,-1.894 -1.446,-3.119 -3.229,-3.119l-24.559,0c-1.566,0 -2.904,1.225 -2.904,2.896c0,1.67 1.338,2.896 2.905,2.896l21.329,-0l-0,16.532c-5.809,5.808 -14.63,9.494 -24.346,9.494c-20.325,0 -30.709,-15.414 -30.709,-32.823c0,-17.535 12.059,-32.39 30.484,-32.39c8.712,0 15.525,3.128 21.221,8.6c0.666,0.671 1.45,0.894 2.341,0.894c1.788,-0 3.013,-1.229 3.013,-2.904c-0,-0.894 -0.334,-1.675 -0.892,-2.346c-6.25,-6.583 -15.521,-10.37 -25.683,-10.37c-21.775,-0 -37.171,16.848 -37.171,38.516c-0,19.196 12.158,38.503 37.171,38.503c13.4,0 24.121,-5.68 30.137,-12.494c0.559,-0.67 0.892,-1.452 0.892,-2.569Z" style="fill:#00bed7;fill-rule:nonzero;"/></svg>