<?xml version="1.0" encoding="UTF-8"?>
<svg id="Calque_1" data-name="Calque 1" xmlns="http://www.w3.org/2000/svg" viewBox="0 0 36.21 42.5">
  <defs>
    <style>
      .cls-1 {
        font-family: Helvetica-Bold, Helvetica;
        font-size: 8px;
        font-weight: 700;
      }

      .cls-1, .cls-2 {
        fill: #1d1d1b;
      }
    </style>
  </defs>
  <path class="cls-2" d="m29.7,38.34c-2.96,2.77-6.74,4.16-11.35,4.16-5.7,0-10.19-1.87-13.45-5.62C1.63,33.12,0,27.96,0,21.4,0,14.31,1.86,8.85,5.57,5.01,8.8,1.67,12.9,0,17.89,0c6.67,0,11.55,2.24,14.63,6.72,1.7,2.52,2.62,5.04,2.74,7.57h-8.29c-.54-1.95-1.23-3.42-2.07-4.41-1.51-1.76-3.74-2.64-6.7-2.64s-5.39,1.24-7.13,3.73c-1.74,2.49-2.61,6.01-2.61,10.56s.92,7.96,2.76,10.23c1.84,2.27,4.17,3.4,7.01,3.4s5.12-.97,6.64-2.92c.84-1.05,1.54-2.62,2.1-4.71h8.2c-.72,4.43-2.55,8.03-5.49,10.8Z"/>
  <text class="cls-1" transform="translate(16.21 23.93)"><tspan x="0" y="0">prod.</tspan></text>
</svg>